<?xml version="1.0" standalone="no"?>
<!DOCTYPE svg PUBLIC "-//W3C//DTD SVG 20010904//EN"
 "http://www.w3.org/TR/2001/REC-SVG-20010904/DTD/svg10.dtd">
<svg version="1.0" xmlns="http://www.w3.org/2000/svg"
 width="1890.000000pt" height="1417.000000pt" viewBox="0 0 1890.000000 1417.000000"
 preserveAspectRatio="xMidYMid meet">

<g transform="translate(0.000000,1417.000000) scale(0.100000,-0.100000)"
fill="#000000" stroke="none">
<path d="M8795 11098 c-562 -37 -1159 -206 -1664 -469 -400 -209 -713 -440
-1042 -768 -352 -352 -595 -691 -809 -1126 -407 -830 -534 -1758 -364 -2655
209 -1103 828 -2062 1745 -2705 405 -283 898 -509 1376 -629 379 -96 659 -130
1058 -130 432 1 775 49 1180 165 881 254 1663 796 2215 1534 755 1009 1024
2299 734 3523 -13 58 -36 131 -50 163 -33 72 -112 150 -191 187 -52 24 -69 27
-173 27 -111 0 -118 -1 -185 -34 -128 -63 -220 -183 -251 -330 -20 -94 -18
-134 15 -294 57 -277 66 -376 66 -697 0 -227 -4 -324 -18 -420 -108 -763 -419
-1405 -936 -1934 -285 -290 -571 -498 -926 -671 -345 -169 -680 -270 -1065
-322 -192 -26 -660 -26 -845 0 -753 107 -1393 415 -1918 926 -81 80 -179 181
-216 225 -429 505 -694 1098 -786 1761 -26 181 -31 581 -11 774 70 660 313
1250 731 1779 87 109 311 340 430 442 504 433 1129 707 1805 792 161 20 662
17 820 -6 723 -102 1344 -395 1874 -884 107 -98 198 -151 294 -171 214 -44
414 54 505 246 29 62 32 76 32 168 0 146 -25 193 -187 351 -854 832 -2036
1263 -3243 1182z"/>
</g>
</svg>
